<svg width="625" height="680" viewBox="0 0 625 680" fill="none" xmlns="http://www.w3.org/2000/svg">
<g clip-path="url(#clip0_5_30)">
<path d="M438.672 679H624.168V22.8459H438.672V679Z" fill="#D25821"/>
<path d="M438.672 594.489H624.168V566.721H438.672V594.489Z" fill="#F8A310"/>
<path d="M438.672 135.125H624.168V107.357H438.672V135.125Z" fill="#F8A310"/>
<path d="M624.167 679H595.936V594.489H624.167V566.721H595.936V135.125H624.167V107.357H595.936V22.8459H624.167V679Z" fill="#D66635"/>
<path d="M595.936 594.489H624.167V566.721H595.936V594.489Z" fill="#F9AB1C"/>
<path d="M595.936 135.125H624.167V107.357H595.936V135.125Z" fill="#F9AB1C"/>
<path d="M466.904 679H438.672V594.489H466.904V679V679ZM466.904 566.721H438.672V135.125H466.904V566.721Z" fill="#B54F21"/>
<path d="M438.672 594.489H466.903V566.721H438.672V594.489Z" fill="#DB9016"/>
<path d="M438.672 107.357H466.903V22.8458H438.672V107.357Z" fill="#B54F21"/>
<path d="M438.672 135.125H466.903V107.357H438.672V135.125Z" fill="#DB9016"/>
</g>
<g clip-path="url(#clip1_5_30)">
<path d="M223.353 678.883H408.848V-6.87895e-06H223.353V678.883Z" fill="#D5B34E"/>
<path d="M223.353 591.435H408.848V562.704H223.353V591.435Z" fill="#2F4A57"/>
<path d="M223.353 116.171H408.848V87.4459H223.353V116.171Z" fill="#2F4A57"/>
<path d="M251.572 678.883H223.353V0.00475265H251.572V87.4521H223.353V116.171H251.572V562.704H223.353V591.435H251.572V678.883Z" fill="#DABB5E"/>
<path d="M408.849 678.883H380.617V591.435H408.849V678.883ZM408.849 562.704H380.617V116.171H408.849V562.704ZM408.849 87.4521H380.617V0.00475265H408.849V87.4521Z" fill="#BA9C48"/>
<path d="M286.968 523.501C286.968 527.367 290.102 530.501 293.968 530.501H338.234C342.1 530.501 345.234 527.367 345.234 523.501V159.456C345.234 155.59 342.1 152.456 338.234 152.456H293.968C290.102 152.456 286.968 155.59 286.968 159.456V523.501Z" fill="#2F4A57"/>
</g>
<g clip-path="url(#clip2_5_30)">
<path d="M0.000335693 653.99L130.071 679.273L224.927 191.283L94.8559 166L0.000335693 653.99Z" fill="#31475E"/>
<rect x="205.192" y="187.447" width="20.1043" height="497.123" transform="rotate(11 205.192 187.447)" fill="#2E4053"/>
<rect x="94.856" y="166" width="20.1043" height="497.123" transform="rotate(11 94.856 166)" fill="#42596F"/>
<path d="M72.6901 280.032L202.45 305.254L207.93 277.064L78.1698 251.841L72.6901 280.032Z" fill="#3C9EA0"/>
<path d="M61.8236 335.935L191.583 361.158L197.063 332.966L67.3035 307.744L61.8236 335.935Z" fill="#3C9EA0"/>
<path d="M72.6901 280.032L92.4371 283.87L97.9169 255.679L78.1698 251.841L72.6901 280.032Z" fill="#47A9A9"/>
<path d="M61.8236 335.935L81.5706 339.773L87.0505 311.582L67.3035 307.744L61.8236 335.935Z" fill="#47A9A9"/>
<path d="M182.703 301.416L202.45 305.254L207.93 277.064L188.183 273.225L182.703 301.416Z" fill="#368A8E"/>
</g>
<defs>
<clipPath id="clip0_5_30">
<rect x="438.672" y="22.8458" width="185.495" height="656.154" rx="17" fill="white"/>
</clipPath>
<clipPath id="clip1_5_30">
<rect width="185.495" height="678.883" rx="20" transform="matrix(1 0 0 -1 223.353 678.883)" fill="white"/>
</clipPath>
<clipPath id="clip2_5_30">
<rect x="94.8556" y="166" width="132.506" height="497.123" rx="10" transform="rotate(11 94.8556 166)" fill="white"/>
</clipPath>
</defs>
</svg>
